:SAMPLES-PER-SECOND 30
:FULLY-SPECIFIED
:DEGREES
335
root  -13.8915 29.8536 -6.55837 -163.669 83.9181 -63.2242
RightUpLeg  56.1888 20.6352 -56.9995
RightLeg  62.02 16.8696 30.3618
RightFoot  -14.745 0.0499253 5.47487
RightToes  3.49245e-010 0 -3.6325e-017
Spine  -56.894 -33.3584 124.987
Spine1  75.7112 33.6103 -123.909
HEad  -33.1618 -0.279186 -1.29092
LeftShoulder1  -0.948656 -4.33842 23.4636
LeftArm  -99.3103 -51.9188 15.8802
LeftForeArm  -17.5696 -23.6146 -5.82979
LeftHand  -0.357756 12.3539 -4.63426
RightShoulder  -0.648844 3.44507 -20.4409
RightArm  -80.1776 38.0328 -14.6348
RightForeArm  -43.6895 17.2351 -1.61725
RightHand  0.481001 11.0035 2.95616
LeftUpLeg  81.154 -15.6063 7.58552
LeftLeg  64.9643 -0.480856 -0.441948
LeftFoot  -33.6478 -1.17129 -6.96045
LeftToes  -5.36635e-011 -6.70219e-011 5.24975e-011
336
root  -13.682 29.2203 -6.63858 -150.851 85.4922 -45.6994
RightUpLeg  55.5287 20.5011 -56.7625
RightLeg  61.7334 20 34.4564
RightFoot  -14.6904 0.0956296 2.53421
RightToes  3.49245e-010 0 -3.6325e-017
Spine  -57.3431 -39.6602 131.881
Spine1  74.6912 26.5695 -123.938
HEad  -32.5664 -0.652051 -1.15458
LeftShoulder1  -0.989095 -4.68863 23.4394
LeftArm  -99.1053 -52.1697 13.9926
LeftForeArm  -16.8754 -24.1078 -5.96621
LeftHand  -0.348634 12.0823 -4.68675
RightShoulder  -0.589869 2.63198 -20.7806
RightArm  -82.0097 38.4185 -14.651
RightForeArm  -41.7572 17.7077 -1.13375
RightHand  0.484337 11.2628 2.93467
LeftUpLeg  85.4192 -14.8469 9.27176
LeftLeg  66.3374 -0.299341 -0.015289
LeftFoot  -34.1127 -1.25293 -7.23719
LeftToes  -5.36635e-011 -6.70219e-011 5.24975e-011
337
root  -13.2312 28.9146 -6.63988 -162.567 86.0981 -54.8971
RightUpLeg  57.2634 21.4397 -53.9512
RightLeg  61.025 16.9262 29.4427
RightFoot  -11.5935 -0.0912202 -9.97046
RightToes  3.49245e-010 0 -3.6325e-017
Spine  -57.858 -36.9698 126.28
Spine1  80.7708 31.6555 -120.887
HEad  -32.0008 -1.38374 -1.3087
LeftShoulder1  -1.03674 -5.28532 23.1202
LeftArm  -97.92 -52.3924 12.5506
LeftForeArm  -17.3389 -24.5927 -6.09339
LeftHand  -0.394749 12.3833 -5.20179
RightShoulder  -0.485757 1.31551 -21.3275
RightArm  -84.3486 38.3107 -13.7611
RightForeArm  -38.0377 19.0785 0.723409
RightHand  0.242674 10.8385 1.3098
LeftUpLeg  87.4937 -16.6047 11.4362
LeftLeg  67.1759 -0.5808 -0.751848
LeftFoot  -34.3034 -1.17495 -6.79076
LeftToes  -5.36635e-011 -6.70219e-011 5.24975e-011
338
root  -12.2646 28.2517 -7.13802 -144.305 89.0392 -31.9051
RightUpLeg  58.2286 29.9297 -51.6796
RightLeg  62.6444 16.2208 30.1719
RightFoot  -15.4878 -0.241496 -3.35782
RightToes  3.49245e-010 0 -3.6325e-017
Spine  -46.567 -41.4835 105.642
Spine1  95.6689 37.6883 -103.734
HEad  -31.2712 -2.23332 -1.62194
LeftShoulder1  -0.992977 -5.33222 22.4981
LeftArm  -96.2456 -53.3086 11.8379
LeftForeArm  -18.0235 -24.8009 -6.17163
LeftHand  -0.377008 12.2099 -5.05843
RightShoulder  -0.434215 0.654405 -21.7586
RightArm  -86.354 36.9334 -12.1442
RightForeArm  -33.2304 21.202 3.77427
RightHand  0.296353 10.815 1.69216
LeftUpLeg  92.9053 -16.9805 13.9183
LeftLeg  68.2047 -0.973541 -1.87949
LeftFoot  -35.9412 -1.15988 -6.33123
LeftToes  -5.36635e-011 -6.70219e-011 5.24975e-011
339
root  -11.4005 27.5737 -7.37669 97.4478 88.8877 -143.979
RightUpLeg  60.9713 36.9636 -50.3363
RightLeg  64.4917 15.0303 30.4112
RightFoot  -14.9941 -0.293768 -6.03815
RightToes  3.49245e-010 0 -3.6325e-017
Spine  -37.1051 -44.6519 89.9747
Spine1  109.008 39.4609 -88.7905
HEad  -30.7483 -2.60655 -1.70862
LeftShoulder1  -0.994596 -5.66933 22.041
LeftArm  -93.6322 -53.4466 10.9692
LeftForeArm  -19.0279 -25.6047 -6.40401
LeftHand  -0.396418 12.3055 -5.28545
RightShoulder  -0.454136 0.704743 -22.1602
RightArm  -86.3654 35.0377 -9.87153
RightForeArm  -30.4842 23.5215 6.27629
RightHand  0.296437 11.0007 1.65519
LeftUpLeg  98.8728 -21.4029 16.9173
LeftLeg  68.9775 -1.71375 -4.06942
LeftFoot  -37.4409 -0.730738 -4.11712
LeftToes  -5.36635e-011 -6.70219e-011 5.24975e-011
340
root  -10.8511 27.1355 -7.63896 41.77 87.6963 161.633
RightUpLeg  61.1848 40.1744 -48.7009
RightLeg  65.8923 13.7376 29.9038
RightFoot  -16.301 -0.35732 -5.6962
RightToes  3.49245e-010 0 -3.6325e-017
Spine  -34.4083 -47.4533 88.2106
Spine1  108.107 37.9136 -88.5548
HEad  -31.6508 -2.66609 -1.96029
LeftShoulder1  -0.924806 -5.14881 21.8706
LeftArm  -92.6264 -53.2105 10.0074
LeftForeArm  -19.513 -26.5969 -6.65997
LeftHand  -0.443821 12.4971 -5.87785
RightShoulder  -0.399986 0.302874 -21.8647
RightArm  -84.7081 35.2209 -9.59621
RightForeArm  -32.0902 25.1652 6.84838
RightHand  -0.0458619 10.0972 -0.746082
LeftUpLeg  100.206 -22.6829 19.241
LeftLeg  69.8261 -1.35054 -3.18175
LeftFoot  -39.0143 -0.717669 -3.87918
LeftToes  -5.36635e-011 -6.70219e-011 5.24975e-011
341
root  -10.2483 26.8236 -7.84146 29.5276 86.7894 151.326
RightUpLeg  62.314 43.3951 -46.9642
RightLeg  66.9022 12.9006 29.6029
RightFoot  -16.7315 -0.404967 -6.1927
RightToes  3.49245e-010 0 -3.6325e-017
Spine  -30.7892 -48.6805 84.8629
Spine1  110.645 37.0396 -85.0752
HEad  -32.1181 -3.16227 -1.40681
LeftShoulder1  -0.924245 -5.16536 21.8391
LeftArm  -92.2476 -53.9297 10.2181
LeftForeArm  -19.5515 -26.4117 -6.6176
LeftHand  -0.428383 12.3298 -5.79213
RightShoulder  -0.412785 0.505465 -21.6009
RightArm  -82.0083 34.3 -8.12203
RightForeArm  -33.4532 26.6587 7.22905
RightHand  -0.079781 10.2204 -1.00355
LeftUpLeg  102.669 -24.7204 21.0231
LeftLeg  69.8395 -1.49873 -3.61558
LeftFoot  -39.8649 -0.529426 -3.03192
LeftToes  -5.36635e-011 -6.70219e-011 5.24975e-011
